<svg width="82" height="82" viewBox="0 0 82 82" fill="none" xmlns="http://www.w3.org/2000/svg">
<circle cx="41" cy="41" r="41" fill="#CF3232"/>
<path d="M25.2224 46.2807H31.1431C33.2577 46.2807 34.6321 44.0604 33.6806 42.263C33.0462 40.9943 33.5748 39.4084 34.7378 38.6683C37.381 37.0824 42.9846 36.9767 45.7335 38.6683C47.0023 39.3027 47.4252 40.9944 46.7908 42.263C45.8392 44.0604 47.2137 46.2807 49.3282 46.2807L55.2489 46.2807C56.8349 46.175 58.1036 44.9062 58.1036 43.426L58.1036 39.4084C57.9979 35.285 50.174 31.9018 40.2357 31.9018C30.2973 31.9018 22.3677 35.1793 22.3677 39.4084V43.426C22.4734 45.012 23.7422 46.2807 25.2224 46.2807Z" fill="white"/>
</svg>
