<svg width="60" height="60" viewBox="0 0 60 60" fill="none" xmlns="http://www.w3.org/2000/svg">
<circle cx="30" cy="30" r="30" fill="white" fill-opacity="0.9"/>
<g clip-path="url(#clip0_292_541)">
<path d="M42.3923 40.985L19.0861 18.6921C18.8819 18.4969 18.551 18.4969 18.3468 18.6921L17.6077 19.3991C17.4035 19.5943 17.4035 19.9109 17.6077 20.1062L24.3626 26.5674C24.3252 26.5593 24.29 26.5456 24.25 26.5456C23.9611 26.5456 23.7273 26.7693 23.7273 27.0456V29.5456C23.7273 32.6854 26.2625 35.2648 29.4773 35.5203V39.5456H27.9091C26.7559 39.5456 25.8182 40.4426 25.8182 41.5457V42.0457C25.8182 42.3221 26.052 42.5457 26.3409 42.5457H33.6591C33.948 42.5457 34.1818 42.3221 34.1818 42.0457V41.5457C34.1818 40.4426 33.2441 39.5456 32.0909 39.5456H30.5227V35.4986C31.3864 35.4289 32.2139 35.1933 32.9696 34.8003L40.9139 42.3991C41.1181 42.5944 41.449 42.5944 41.6532 42.3991L42.3922 41.6921C42.5964 41.4969 42.5964 41.1803 42.3923 40.985ZM30 34.5456C27.1178 34.5456 24.7727 32.3025 24.7727 29.5456V27.0456C24.7727 27.0074 24.7585 26.9737 24.75 26.938L25.8182 27.9597V29.5457C25.8182 31.7512 27.6942 33.5457 30 33.5457C30.481 33.5457 30.9541 33.4582 31.4028 33.3016L32.1951 34.0594C31.5108 34.366 30.7691 34.5456 30 34.5456Z" fill="#323232"/>
<path d="M33.1682 30.7481C33.2677 30.8433 33.401 30.8946 33.5378 30.8946C33.5842 30.8946 33.6312 30.8887 33.6772 30.8765C33.8589 30.8282 33.9993 30.6905 34.0447 30.5157C34.1381 30.1593 34.1815 29.8512 34.1815 29.5455V22.5455C34.1815 20.3399 32.3055 18.5455 29.9997 18.5455C27.6939 18.5455 25.8179 20.3399 25.8179 22.5455V23.5103C25.8179 23.6431 25.873 23.7701 25.971 23.8638L33.1682 30.7481Z" fill="#323232"/>
<path d="M34.9356 32.4C35.0096 32.4347 35.0877 32.4508 35.1643 32.4508C35.3578 32.4508 35.5441 32.3478 35.6345 32.17C36.0582 31.3399 36.2726 30.4571 36.2726 29.5455V27.0455C36.2726 26.7691 36.0388 26.5455 35.7498 26.5455C35.4609 26.5455 35.2271 26.7691 35.2271 27.0455V29.5455C35.2271 30.3038 35.0479 31.0391 34.6952 31.7315C34.5685 31.9796 34.6763 32.2789 34.9356 32.4Z" fill="#323232"/>
</g>
<defs>
<clipPath id="clip0_292_541">
<rect width="25.0909" height="24" fill="white" transform="translate(17.4546 18.5455)"/>
</clipPath>
</defs>
</svg>
