<svg width="25" height="25" viewBox="0 0 25 25" fill="none" xmlns="http://www.w3.org/2000/svg">
<path d="M24.4118 9.65347L22.4903 9.23576C22.3232 8.72421 22.1163 8.22525 21.8719 7.7446L22.9357 6.08997C23.1256 5.79433 23.0839 5.40619 22.8355 5.15785L19.8421 2.16446C19.5938 1.91612 19.2057 1.87435 18.91 2.06432L17.2554 3.12805C16.7747 2.88372 16.2758 2.67677 15.7642 2.50969L15.3465 0.588226C15.2719 0.244904 14.9679 0 14.6166 0H10.3834C10.0321 0 9.72805 0.244904 9.65347 0.588226L9.23576 2.50969C8.72421 2.67677 8.22525 2.88372 7.7446 3.12805L6.08997 2.06432C5.79433 1.87435 5.40619 1.91612 5.15785 2.16446L2.16446 5.15785C1.91612 5.40619 1.87435 5.79433 2.06432 6.08997L3.12805 7.7446C2.88372 8.22525 2.67677 8.72421 2.50969 9.23576L0.588226 9.65347C0.244904 9.72824 0 10.0321 0 10.3834V14.6166C0 14.9679 0.244904 15.2718 0.588226 15.3465L2.50969 15.7642C2.67677 16.2758 2.88372 16.7747 3.12805 17.2554L2.06432 18.91C1.87435 19.2057 1.91612 19.5938 2.16446 19.8421L5.15785 22.8355C5.40619 23.0839 5.79433 23.1256 6.08997 22.9357L7.7446 21.8719C8.22525 22.1163 8.72421 22.3232 9.23576 22.4903L9.65347 24.4118C9.72805 24.7551 10.0321 25 10.3834 25H14.6166C14.9679 25 15.2719 24.7551 15.3465 24.4118L15.7642 22.4903C16.2758 22.3232 16.7747 22.1163 17.2554 21.8719L18.91 22.9357C19.2057 23.1256 19.5938 23.0841 19.8421 22.8355L22.8355 19.8421C23.0839 19.5938 23.1256 19.2057 22.9357 18.91L21.8719 17.2554C22.1163 16.7747 22.3232 16.2758 22.4903 15.7642L24.4118 15.3465C24.7551 15.2718 25 14.9679 25 14.6166V10.3834C25 10.0321 24.7551 9.72824 24.4118 9.65347ZM16.9821 12.5C16.9821 14.9714 14.9714 16.9821 12.5 16.9821C10.0286 16.9821 8.01792 14.9714 8.01792 12.5C8.01792 10.0286 10.0286 8.01792 12.5 8.01792C14.9714 8.01792 16.9821 10.0286 16.9821 12.5Z" fill="#C6C6C6"/>
</svg>
