<svg width="60" height="60" viewBox="0 0 60 60" fill="none" xmlns="http://www.w3.org/2000/svg">
<circle cx="30" cy="30" r="30" fill="white" fill-opacity="0.9"/>
<g clip-path="url(#clip0_292_539)">
<path d="M31.6815 20.3954C31.4411 20.2807 31.1578 20.3111 30.9506 20.4783L24.2294 25.8549H21.018C20.2567 25.8549 19.6362 26.4754 19.6362 27.2367V32.764C19.6362 33.5268 20.2567 34.1458 21.018 34.1458H24.2294L30.9492 39.5225C31.0749 39.622 31.2283 39.6731 31.3817 39.6731C31.4839 39.6731 31.5862 39.6496 31.6815 39.604C31.9206 39.4893 32.0726 39.2475 32.0726 38.9822V21.0186C32.0726 20.7533 31.9206 20.5114 31.6815 20.3954Z" fill="#323232"/>
<path d="M35.5698 25.1143C35.2976 24.8462 34.861 24.8504 34.5929 25.1198C34.3248 25.392 34.3276 25.8287 34.5984 26.0981C35.6431 27.129 36.2179 28.5149 36.2179 30.0004C36.2179 31.4859 35.6431 32.8718 34.5984 33.9027C34.3276 34.1693 34.3248 34.6074 34.5929 34.8796C34.7283 35.0164 34.9066 35.0841 35.0834 35.0841C35.2589 35.0841 35.4344 35.0178 35.5698 34.8837C36.8798 33.5945 37.5997 31.8589 37.5997 30.0004C37.5997 28.1419 36.8798 26.4063 35.5698 25.1143Z" fill="#323232"/>
<path d="M37.5196 23.1673C37.2474 22.8978 36.8108 22.9006 36.5413 23.1714C36.2732 23.4423 36.276 23.8803 36.5455 24.1484C38.1166 25.7057 38.9816 27.7839 38.9816 30.0004C38.9816 32.2168 38.1166 34.2937 36.5455 35.851C36.276 36.1204 36.2732 36.5585 36.5413 36.8293C36.6781 36.9647 36.855 37.0324 37.0319 37.0324C37.2073 37.0324 37.3842 36.9661 37.5196 36.8321C39.3547 35.015 40.3634 32.5885 40.3634 30.0004C40.3634 27.4122 39.3547 24.9858 37.5196 23.1673Z" fill="#323232"/>
</g>
<defs>
<clipPath id="clip0_292_539">
<rect width="20.7273" height="20.7273" fill="white" transform="translate(19.6362 19.6364)"/>
</clipPath>
</defs>
</svg>
