<svg width="60" height="60" viewBox="0 0 60 60" fill="none" xmlns="http://www.w3.org/2000/svg">
<circle cx="30" cy="30" r="30" fill="white" fill-opacity="0.9"/>
<path d="M38.35 32.4879L43.3887 35.2388V25.752L38.35 28.5029V32.4879Z" fill="#323232"/>
<path d="M17.6164 21.1684C17.4063 20.9663 17.4 20.6321 17.6022 20.4221L18.2028 19.7981C18.405 19.5881 18.7391 19.5817 18.9491 19.7839L40.9337 40.947C41.1438 41.1492 41.1501 41.4833 40.948 41.6934L40.3473 42.3173C40.1452 42.5273 39.811 42.5337 39.601 42.3315L17.6164 21.1684Z" fill="#323232"/>
<path fill-rule="evenodd" clip-rule="evenodd" d="M24.1286 24.7256H22.925C22.1155 24.7265 21.4597 25.3823 21.4587 26.1918V35.8408C21.4597 36.6503 22.1155 37.3061 22.925 37.307H35.0902C35.6727 37.3063 36.1758 36.9664 36.4124 36.4741L24.1286 24.7256ZM36.5565 35.0912V26.1918C36.5555 25.3823 35.8995 24.7265 35.0902 24.7256H25.6565L36.5565 35.0912Z" fill="#323232"/>
</svg>
